<svg width="20" height="20" viewBox="0 0 20 20" fill="none" xmlns="http://www.w3.org/2000/svg">
<path d="M8.36532 4.42982L8.90615 5.39892C9.39424 6.27349 9.19832 7.42077 8.42957 8.18951C8.42957 8.18951 7.49722 9.12201 9.18774 10.8126C10.8777 12.5026 11.8108 11.5708 11.8108 11.5708C12.5796 10.802 13.7268 10.6061 14.6014 11.0942L15.5705 11.635C16.8912 12.372 17.0471 14.224 15.8863 15.3848C15.1888 16.0823 14.3343 16.6251 13.3897 16.6608C11.7997 16.7212 9.09924 16.3188 6.3904 13.6099C3.68159 10.9011 3.27916 8.20069 3.33944 6.61058C3.37525 5.66601 3.91799 4.81153 4.61549 4.11403C5.77629 2.95324 7.62829 3.10921 8.36532 4.42982Z" stroke="#B2B2B2" stroke-linecap="round"/>
</svg>
